<svg width="620" height="109" viewBox="0 0 620 109" fill="none" xmlns="http://www.w3.org/2000/svg">
<path d="M9.28282 59.0001C6.60282 58.6801 4.48282 57.8001 2.92282 56.3601C1.40282 54.9201 0.642822 52.8001 0.642822 50.0001V38.0601C0.642822 30.1801 4.90282 26.2401 13.4228 26.2401C21.9428 26.2401 26.2028 30.2801 26.2028 38.3601V45.8001L34.7228 52.3401C35.6428 53.1001 36.6228 53.4801 37.6628 53.4801C38.7028 53.4801 39.2228 52.6801 39.2228 51.0801V35.7201C39.2228 29.4001 42.4028 26.2401 48.7628 26.2401C55.1228 26.2401 58.3028 29.3001 58.3028 35.4201V59.0001H53.0828V35.3601C53.0828 32.3201 51.6428 30.8001 48.7628 30.8001C45.8828 30.8001 44.4428 32.3801 44.4428 35.5401V51.5601C44.4428 56.5201 42.6428 59.0001 39.0428 59.0001C37.5628 59.0001 36.2228 58.7001 35.0228 58.1001C33.8228 57.5001 32.5228 56.6601 31.1228 55.5801L26.2028 51.7401C26.2028 53.9801 25.5428 55.7601 24.2228 57.0801C22.9428 58.3601 21.1828 59.0001 18.9428 59.0001C16.7428 59.0001 15.0228 58.3801 13.7828 57.1401C12.5428 55.8601 11.9228 54.1201 11.9228 51.9201C11.9228 49.6401 12.6228 47.8601 14.0228 46.5801C15.2628 45.4201 16.9028 44.8401 18.9428 44.8401C19.5828 44.8401 20.2628 44.9001 20.9828 45.0201V38.1801C20.9828 33.2601 18.4628 30.8001 13.4228 30.8001C8.38282 30.8001 5.86282 33.2001 5.86282 38.0001V49.7601C5.86282 52.7201 7.36282 54.4401 10.3628 54.9201L9.28282 59.0001ZM18.7028 55.0401C20.2228 55.0401 20.9828 54.0401 20.9828 52.0401V49.2801C20.3028 49.0801 19.7428 48.9801 19.3028 48.9801C17.4228 48.9801 16.4828 50.0201 16.4828 52.1001C16.4828 54.0601 17.2228 55.0401 18.7028 55.0401Z" fill="#F5F5F5"/>
<path d="M60.3963 108.74C55.5163 108.74 53.0763 105.5 53.0763 99.0201V58.0401H58.2963V100.52C58.2963 102.68 58.9763 103.76 60.3363 103.76C61.7363 103.76 62.4363 102.68 62.4363 100.52V64.8201H67.6563V99.0201C67.6563 105.5 65.2363 108.74 60.3963 108.74Z" fill="#F5F5F5"/>
<path d="M78.0363 59.0001V36.5001C78.0363 32.7001 76.5963 30.8001 73.7163 30.8001C70.8363 30.8001 69.3963 32.3801 69.3963 35.5401C69.3963 38.6601 70.7763 40.6201 73.5363 41.4201L72.9963 44.9601C71.1963 44.8801 69.5963 44.4001 68.1963 43.5201C66.7963 42.6001 65.6963 41.4401 64.8963 40.0401C64.1363 38.6401 63.7563 37.2001 63.7563 35.7201C63.7563 32.5601 64.6163 30.2001 66.3363 28.6401C68.0963 27.0401 70.5563 26.2401 73.7163 26.2401C76.7963 26.2401 79.1363 27.7401 80.7363 30.7401C82.3763 27.7401 84.9763 26.2401 88.5363 26.2401C92.3363 26.2401 94.9763 27.6801 96.4563 30.5601C98.0163 27.6801 100.576 26.2401 104.136 26.2401C111.096 26.2401 114.576 29.6801 114.576 36.5601V59.0001H109.356V36.5001C109.356 32.7001 107.616 30.8001 104.136 30.8001C100.656 30.8001 98.9163 32.7601 98.9163 36.6801V59.0001H93.6963V36.5001C93.6963 32.7001 91.9763 30.8001 88.5363 30.8001C85.0163 30.8001 83.2563 32.7601 83.2563 36.6801V59.0001H78.0363Z" fill="#F5F5F5"/>
<path d="M93.6522 24.2401C87.8122 24.2401 83.6122 23.2401 81.0522 21.2401C79.7322 20.2001 78.6922 19.0001 77.9322 17.6401C77.1722 16.2401 76.7922 14.6801 76.7922 12.9601C76.7922 8.56012 78.1322 5.32012 80.8122 3.24012C83.4922 1.16012 87.0122 0.120117 91.3722 0.120117C99.4122 0.120117 105.792 4.44012 110.512 13.0801L106.732 15.4801C104.812 12.0801 102.612 9.50012 100.132 7.74012C97.6522 5.98012 94.9122 5.10012 91.9122 5.10012C88.7522 5.10012 86.3322 5.70012 84.6522 6.90012C82.9722 8.06012 82.1322 9.82012 82.1322 12.1801C82.1322 14.7001 83.0522 16.6201 84.8922 17.9401C86.6522 19.2201 89.5722 19.9001 93.6522 19.9801V24.2401ZM101.272 24.4801C100.352 24.4801 99.5122 24.2001 98.7522 23.6401C97.9522 23.0801 97.5522 22.3601 97.5522 21.4801C97.5522 20.6401 97.8722 19.9401 98.5122 19.3801C99.1122 18.7801 99.8522 18.4801 100.732 18.4801C101.412 18.4801 101.992 18.6801 102.472 19.0801C102.912 19.4801 103.132 19.9401 103.132 20.4601C103.132 20.7001 103.032 21.0201 102.832 21.4201L103.072 21.6601C104.232 21.0201 105.412 19.8001 106.612 18.0001L108.952 19.5601C107.032 22.8401 104.472 24.4801 101.272 24.4801Z" fill="#F5F5F5"/>
<path d="M145.205 59.0601C144.325 59.0601 143.325 58.8401 142.205 58.4001L129.005 53.0001V51.3201C131.565 49.0801 133.505 46.8001 134.825 44.4801C136.185 42.1601 136.865 39.8201 136.865 37.4601V36.9801C136.865 32.5401 135.765 30.3201 133.565 30.3201H126.065L129.905 35.6001H124.205L118.985 28.0401L120.005 26.2401H133.865C139.505 26.2401 142.325 29.3001 142.325 35.4201C142.325 41.4601 140.165 46.5401 135.845 50.6601L143.705 53.9001C143.825 53.9401 143.965 53.9801 144.125 54.0201C144.285 54.0201 144.405 54.0201 144.485 54.0201C145.285 54.0201 145.685 53.4601 145.685 52.3401V37.5201C145.685 30.0001 149.665 26.2401 157.625 26.2401C165.545 26.2401 169.505 29.8801 169.505 37.1601V59.0001H164.285V37.1001C164.285 32.9001 162.065 30.8001 157.625 30.8001C153.145 30.8001 150.905 32.9601 150.905 37.2801V52.7601C150.905 56.9601 149.005 59.0601 145.205 59.0601Z" fill="#F5F5F5"/>
<path d="M185.767 59.0001C183.087 58.6801 180.967 57.8001 179.407 56.3601C177.887 54.9201 177.127 52.8001 177.127 50.0001V35.7201C177.127 29.4001 180.327 26.2401 186.727 26.2401C193.047 26.2401 196.207 29.3001 196.207 35.4201V51.1401C196.207 53.6601 197.387 54.9201 199.747 54.9201H207.607C209.967 54.9201 211.147 53.6601 211.147 51.1401V40.7001C211.147 34.1001 208.307 30.6201 202.627 30.2601V26.2401H217.927C224.327 26.2401 227.527 29.4001 227.527 35.7201V59.0001H222.307V35.5401C222.307 32.3801 220.847 30.8001 217.927 30.8001H211.387C214.667 31.7601 216.307 34.7401 216.307 39.7401V51.0201C216.307 56.3401 213.507 59.0001 207.907 59.0001H199.447C193.847 59.0001 191.047 56.3401 191.047 51.0201V35.3601C191.047 32.3201 189.607 30.8001 186.727 30.8001C183.807 30.8001 182.347 32.3801 182.347 35.5401V49.7601C182.347 52.7201 183.847 54.4401 186.847 54.9201L185.767 59.0001Z" fill="#F5F5F5"/>
<path d="M229.556 108.74C224.676 108.74 222.236 105.5 222.236 99.0201V58.0401H227.456V100.52C227.456 102.68 228.136 103.76 229.496 103.76C230.896 103.76 231.596 102.68 231.596 100.52V64.8201H236.816V99.0201C236.816 105.5 234.396 108.74 229.556 108.74Z" fill="#F5F5F5"/>
<path d="M253.255 108.98L248.995 108.5C249.915 103.06 250.595 98.1001 251.035 93.6201C251.515 89.1401 251.755 85.2001 251.755 81.8001C251.755 77.0801 251.155 73.1001 249.955 69.8601C248.795 66.6601 246.875 64.1401 244.195 62.3001C241.515 60.5001 237.915 59.3801 233.395 58.9401V55.6401C235.475 54.1201 237.175 52.4801 238.495 50.7201C239.815 48.9201 241.035 46.8001 242.155 44.3601C239.515 43.9601 237.415 42.9601 235.855 41.3601C234.335 39.7201 233.575 37.6201 233.575 35.0601C233.575 32.4601 234.235 30.3401 235.555 28.7001C236.915 27.0601 238.855 26.2401 241.375 26.2401C243.975 26.2401 245.975 27.1001 247.375 28.8201C248.775 30.5001 249.475 32.6601 249.475 35.3001C249.475 37.5001 249.015 39.8601 248.095 42.3801C247.215 44.9001 245.995 47.3401 244.435 49.7001C242.875 52.0601 241.135 54.1201 239.215 55.8801C243.415 56.3601 246.815 57.6201 249.415 59.6601C252.015 61.7401 253.915 64.4601 255.115 67.8201C256.315 71.1801 256.915 75.0801 256.915 79.5201C256.915 83.2401 256.615 87.5601 256.015 92.4801C255.415 97.4001 254.495 102.9 253.255 108.98ZM243.595 39.9801C243.915 39.1001 244.135 38.2801 244.255 37.5201C244.375 36.7601 244.435 36.0401 244.435 35.3601C244.435 34.0801 244.175 33.0201 243.655 32.1801C243.135 31.3001 242.355 30.8601 241.315 30.8601C240.315 30.8601 239.555 31.2801 239.035 32.1201C238.515 32.9201 238.255 33.9001 238.255 35.0601C238.255 37.9801 240.035 39.6201 243.595 39.9801Z" fill="#F5F5F5"/>
<path d="M264.927 59.0001C262.247 58.6801 260.127 57.8001 258.567 56.3601C257.047 54.9201 256.287 52.8001 256.287 50.0001V35.7201C256.287 29.4001 259.487 26.2401 265.887 26.2401C272.207 26.2401 275.367 29.3001 275.367 35.4201V51.1401C275.367 53.6601 276.547 54.9201 278.907 54.9201H283.827C286.187 54.9201 287.367 53.6601 287.367 51.1401V35.7201C287.367 32.6401 288.087 30.3001 289.527 28.7001C291.007 27.0601 293.327 26.2401 296.487 26.2401C298.127 26.2401 299.607 26.5801 300.927 27.2601C302.247 27.9001 303.287 28.8201 304.047 30.0201C305.567 27.5001 307.927 26.2401 311.127 26.2401C317.287 26.2401 320.367 29.3001 320.367 35.4201V59.0001H315.147V35.3601C315.147 32.3201 313.707 30.8001 310.827 30.8001C307.907 30.8001 306.447 32.3801 306.447 35.5401V59.0001H301.227V35.3601C301.227 33.9601 300.847 32.8601 300.087 32.0601C299.327 31.2201 298.267 30.8001 296.907 30.8001C294.027 30.8001 292.587 32.3801 292.587 35.5401V51.0201C292.587 56.3401 289.767 59.0001 284.127 59.0001H278.607C273.007 59.0001 270.207 56.3401 270.207 51.0201V35.3601C270.207 32.3201 268.767 30.8001 265.887 30.8001C262.967 30.8001 261.507 32.3801 261.507 35.5401V49.7601C261.507 52.7201 263.007 54.4401 266.007 54.9201L264.927 59.0001Z" fill="#F5F5F5"/>
<path d="M294.069 24.3601L288.069 23.2801C285.709 22.8401 283.769 22.0201 282.249 20.8201C280.689 19.6201 279.909 18.1001 279.909 16.2601C279.909 13.9801 280.669 12.2801 282.189 11.1601C283.709 10.0001 285.549 9.42012 287.709 9.42012C290.349 9.42012 292.369 10.1601 293.769 11.6401C295.169 13.0801 295.869 15.1001 295.869 17.7001V23.2201L294.069 24.3601ZM291.129 19.8001V17.3401C291.129 15.9801 290.769 14.9801 290.049 14.3401C289.329 13.6601 288.449 13.3201 287.409 13.3201C286.649 13.3201 285.969 13.5401 285.369 13.9801C284.769 14.3801 284.469 14.9801 284.469 15.7801C284.469 16.9001 284.829 17.7001 285.549 18.1801C286.229 18.6601 287.049 19.0001 288.009 19.2001L291.129 19.8001ZM301.449 22.4401C300.529 22.4401 299.689 22.1601 298.929 21.6001C298.129 21.0401 297.729 20.3201 297.729 19.4401C297.729 18.6001 298.049 17.9001 298.689 17.3401C299.289 16.7401 300.029 16.4401 300.909 16.4401C301.589 16.4401 302.169 16.6401 302.649 17.0401C303.089 17.4401 303.309 17.9001 303.309 18.4201C303.309 18.6601 303.209 18.9801 303.009 19.3801L303.249 19.6201C304.409 18.9801 305.589 17.7601 306.789 15.9601L309.129 17.5201C307.209 20.8001 304.649 22.4401 301.449 22.4401Z" fill="#F5F5F5"/>
<path d="M336.646 59.0001C333.966 58.6801 331.846 57.8001 330.286 56.3601C328.766 54.9201 328.006 52.8001 328.006 50.0001V35.7201C328.006 29.4001 331.206 26.2401 337.606 26.2401C343.926 26.2401 347.086 29.3001 347.086 35.4201V43.5801H353.026V39.5001C353.026 30.6601 357.486 26.2401 366.406 26.2401C371.606 26.2401 375.286 27.7201 377.446 30.6801C379.086 27.7201 381.506 26.2401 384.706 26.2401C390.666 26.2401 393.646 29.3001 393.646 35.4201V59.0001H388.426V35.3601C388.426 32.3201 386.986 30.8001 384.106 30.8001C381.186 30.8001 379.726 32.3801 379.726 35.5401V59.0001H374.566V39.1401C374.566 33.5801 371.846 30.8001 366.406 30.8001C360.966 30.8001 358.246 33.6401 358.246 39.3201V43.5801C360.966 43.6201 363.146 44.4001 364.786 45.9201C366.466 47.4401 367.306 49.4401 367.306 51.9201C367.306 54.2801 366.666 56.0601 365.386 57.2601C364.146 58.4201 362.446 59.0001 360.286 59.0001C357.966 59.0001 356.166 58.4201 354.886 57.2601C353.646 56.1001 353.026 54.3601 353.026 52.0401V48.0801H347.086V59.0001H341.926V35.3601C341.926 32.3201 340.486 30.8001 337.606 30.8001C334.686 30.8001 333.226 32.3801 333.226 35.5401V49.7601C333.226 52.7201 334.726 54.4401 337.726 54.9201L336.646 59.0001ZM360.526 54.7401C361.406 54.7401 361.986 54.5001 362.266 54.0201C362.586 53.5001 362.746 52.8201 362.746 51.9801C362.746 50.7001 362.326 49.7401 361.486 49.1001C360.686 48.4201 359.606 48.0801 358.246 48.0801V52.0401C358.246 53.8401 359.006 54.7401 360.526 54.7401Z" fill="#F5F5F5"/>
<path d="M409.888 59.0001C407.208 58.6801 405.088 57.8001 403.528 56.3601C402.008 54.9201 401.248 52.8001 401.248 50.0001V35.7201C401.248 29.4001 404.448 26.2401 410.848 26.2401H428.488V30.8001H423.388C420.268 30.8001 418.708 32.2601 418.708 35.1801C418.708 38.4601 421.268 40.1001 426.388 40.1001H428.308V44.4201H425.368C420.328 44.4201 417.808 46.3601 417.808 50.2401C417.808 53.3601 419.488 54.9201 422.848 54.9201H429.208C431.568 54.9201 432.748 53.6601 432.748 51.1401V35.7201C432.748 29.4001 435.928 26.2401 442.288 26.2401C448.648 26.2401 451.828 29.3001 451.828 35.4201V59.0001H446.608V35.3601C446.608 32.3201 445.168 30.8001 442.288 30.8001C439.368 30.8001 437.908 32.3801 437.908 35.5401V51.0201C437.908 56.3401 435.108 59.0001 429.508 59.0001H422.248C419.328 59.0001 416.968 58.2801 415.168 56.8401C413.408 55.3601 412.528 53.1601 412.528 50.2401C412.528 47.9601 413.168 46.2401 414.448 45.0801C415.768 43.8801 417.508 42.9801 419.668 42.3801V42.0801C415.668 40.8801 413.668 38.4401 413.668 34.7601C413.668 33.2401 414.428 31.9201 415.948 30.8001H410.848C407.928 30.8001 406.468 32.3801 406.468 35.5401V49.7601C406.468 52.7201 407.968 54.4401 410.968 54.9201L409.888 59.0001Z" fill="#F5F5F5"/>
<path d="M483.612 59.1201H483.312C482.112 59.1201 480.852 58.8201 479.532 58.2201C478.212 57.5801 476.792 56.7601 475.272 55.7601C471.672 53.3601 469.272 52.1601 468.072 52.1601C465.992 52.1601 464.232 54.4001 462.792 58.8801L458.592 56.4801C461.112 49.9601 464.032 46.7001 467.352 46.7001C468.752 46.7001 470.072 47.0401 471.312 47.7201C472.552 48.4001 474.192 49.4401 476.232 50.8401C479.472 53.0801 481.452 54.2001 482.172 54.2001C483.572 54.2001 484.272 53.1201 484.272 50.9601V35.7201C484.272 29.4001 487.172 26.2401 492.972 26.2401C498.732 26.2401 501.612 29.3001 501.612 35.4201V59.0001H496.392V35.3601C496.392 32.3201 495.252 30.8001 492.972 30.8001C490.652 30.8001 489.492 32.3801 489.492 35.5401V50.9601C489.492 56.4001 487.532 59.1201 483.612 59.1201Z" fill="#F5F5F5"/>
<path d="M503.717 108.74C498.837 108.74 496.397 105.5 496.397 99.0201V58.0401H501.617V100.52C501.617 102.68 502.297 103.76 503.657 103.76C505.057 103.76 505.757 102.68 505.757 100.52V64.8201H510.977V99.0201C510.977 105.5 508.557 108.74 503.717 108.74Z" fill="#F5F5F5"/>
<path d="M481.039 22.4401C480.119 22.4401 479.279 22.1601 478.519 21.6001C477.719 21.0401 477.319 20.3201 477.319 19.4401C477.319 18.6001 477.639 17.9001 478.279 17.3401C478.879 16.7401 479.619 16.4401 480.499 16.4401C481.179 16.4401 481.759 16.6401 482.239 17.0401C482.679 17.4401 482.899 17.9001 482.899 18.4201C482.899 18.6601 482.799 18.9801 482.599 19.3801L482.839 19.6201C483.999 18.9801 485.179 17.7601 486.379 15.9601L488.719 17.5201C486.799 20.8001 484.239 22.4401 481.039 22.4401Z" fill="#F5F5F5"/>
<path d="M517.877 59.0001C515.197 58.6801 513.077 57.8001 511.517 56.3601C509.997 54.9201 509.237 52.8001 509.237 50.0001V35.7201C509.237 29.4001 512.437 26.2401 518.837 26.2401C525.157 26.2401 528.317 29.3001 528.317 35.4201V51.1401C528.317 53.6601 529.497 54.9201 531.857 54.9201H540.497C536.097 53.0001 533.897 48.9401 533.897 42.7401V41.1801C533.897 31.6201 538.517 26.8401 547.757 26.8401H561.077V32.6601L541.217 43.7601H546.977C551.457 43.7601 554.877 44.6001 557.237 46.2801C559.637 47.9601 560.837 50.3401 560.837 53.4201V59.0001H555.617V54.6801C555.617 52.0801 554.857 50.2201 553.337 49.1001C551.857 47.9801 549.877 47.4201 547.397 47.4201H538.697C539.337 50.4601 542.597 52.9601 548.477 54.9201V59.0001H531.557C525.957 59.0001 523.157 56.3401 523.157 51.0201V35.3601C523.157 32.3201 521.717 30.8001 518.837 30.8001C515.917 30.8001 514.457 32.3801 514.457 35.5401V49.7601C514.457 52.7201 515.957 54.4401 518.957 54.9201L517.877 59.0001ZM538.697 41.0001L555.317 30.6201H547.457C544.657 30.6201 542.497 31.4201 540.977 33.0201C539.457 34.5801 538.697 36.6001 538.697 39.0801V41.0001Z" fill="#F5F5F5"/>
<path d="M577.349 59.0001C574.669 58.6801 572.549 57.8001 570.989 56.3601C569.469 54.9201 568.709 52.8001 568.709 50.0001V35.7201C568.709 29.4001 571.909 26.2401 578.309 26.2401C584.629 26.2401 587.789 29.3001 587.789 35.4201V51.1401C587.789 53.6601 588.969 54.9201 591.329 54.9201H599.189C601.549 54.9201 602.729 53.6601 602.729 51.1401V40.7001C602.729 34.1001 599.889 30.6201 594.209 30.2601V26.2401H609.509C615.909 26.2401 619.109 29.4001 619.109 35.7201V59.0001H613.889V35.5401C613.889 32.3801 612.429 30.8001 609.509 30.8001H602.969C606.249 31.7601 607.889 34.7401 607.889 39.7401V51.0201C607.889 56.3401 605.089 59.0001 599.489 59.0001H591.029C585.429 59.0001 582.629 56.3401 582.629 51.0201V35.3601C582.629 32.3201 581.189 30.8001 578.309 30.8001C575.389 30.8001 573.929 32.3801 573.929 35.5401V49.7601C573.929 52.7201 575.429 54.4401 578.429 54.9201L577.349 59.0001Z" fill="#F5F5F5"/>
</svg>
